# xmcd
#
# Track frame offsets: 
#        182
#        12645
#        17605
#        23257
#        29122
#        62547
#        90767
#        104040
#        129682
#        138457
#        148762
#        155847
#        180485
#        191742
#        210877
#
# Disc length: 3093 seconds
#
# Revision: 5
# Processed by: cddbd v1.5.2PL0 Copyright (c) Steve Scherf et al.
# Submitted via: ExactAudioCopyFreeDBPlugin 1.0
#
DISCID=cb0c130f
DTITLE=Soeur Marie Keyrouz / Chant Byzantin
DYEAR=1989
DGENRE=Classical
TTITLE0=Alleluia (3 fois) - Tropaire de la venue de l'Époux (Lundi Sai
TTITLE0=nt)
TTITLE1=Exapostilarion de l'Office de Mardi Saint : version arabe
TTITLE2=Exapostilarion de l'Office de Mardi Saint : version grecque
TTITLE3=Exapostilarion de l'Office de Mardi Saint : version arabe
TTITLE4=Apostikhon de l'Office de Mercredi Saint (Prière de Marie-Made
TTITLE4=leine)
TTITLE5=Kinonikon (Chant de Communion) de la Liturgie de Jeudi Saint
TTITLE6=Tropaire des Matines de Samedi Saint
TTITLE7=14e Antienne de l'Office de Vendredi Saint
TTITLE8=Extraits du Canon de Samedi Saint : première stance
TTITLE9=Extraits du Canon de Samedi Saint : deuxième stance
TTITLE10=Extraits du Canon de Samedi Saint : troisième stance
TTITLE11=Hymne à la Sainte Vierge, de la Liturgie de Saint-Basile
TTITLE12="Christos Anesti"... de l'Office Pascal
TTITLE13="Antoumoul"... Chant qui remplace le Trishagion dans la Litur
TTITLE13=gie du Dimanche de Paques
TTITLE14="Inna-I-Malak"... 9e Ode du Canon de l'Office du Dimanche de 
TTITLE14=Paques
EXTD=
EXTT0=
EXTT1=
EXTT2=
EXTT3=
EXTT4=
EXTT5=
EXTT6=
EXTT7=
EXTT8=
EXTT9=
EXTT10=
EXTT11=
EXTT12=
EXTT13=
EXTT14=
PLAYORDER=
.
